<?xml version="1.0" standalone="no"?>
<!DOCTYPE svg PUBLIC "-//W3C//DTD SVG 20010904//EN"
 "http://www.w3.org/TR/2001/REC-SVG-20010904/DTD/svg10.dtd">
<svg version="1.0" xmlns="http://www.w3.org/2000/svg"
 width="1280.000000pt" height="822.000000pt" viewBox="0 0 1280.000000 822.000000"
 preserveAspectRatio="xMidYMid meet">
<metadata>
Created by potrace 1.15, written by Peter Selinger 2001-2017
</metadata>
<g transform="translate(0.000000,822.000000) scale(0.100000,-0.100000)"
fill="#000000" stroke="none">
<path d="M12540 8146 c-69 -40 -966 -558 -1995 -1151 -1028 -593 -2735 -1577
-3793 -2187 -1057 -610 -1927 -1106 -1933 -1103 -5 4 -53 -10 -106 -31 -107
-41 -148 -52 -209 -58 -53 -5 -94 -27 -140 -73 -21 -20 -44 -38 -53 -40 -9 -1
-38 -6 -66 -11 -60 -10 -87 -23 -113 -57 -27 -34 -47 -31 -112 16 -91 65 -232
128 -358 161 -101 26 -140 31 -292 35 -116 4 -211 1 -280 -8 -58 -7 -119 -13
-136 -14 -17 -1 -35 -4 -40 -7 -5 -3 -49 -14 -99 -23 -49 -10 -99 -21 -110
-26 -11 -4 -56 -18 -100 -30 -123 -33 -430 -144 -625 -224 -235 -98 -411 -181
-885 -421 -442 -224 -753 -373 -948 -454 -70 -29 -125 -55 -123 -57 7 -7 237
47 340 81 58 18 106 32 106 30 0 -2 -19 -13 -42 -25 -109 -55 -339 -182 -335
-185 7 -8 410 122 562 181 42 17 3 -6 -248 -145 -142 -78 -256 -144 -254 -146
7 -7 362 121 499 180 59 25 45 12 -29 -29 -113 -62 -431 -275 -411 -275 8 0
275 110 421 173 70 30 127 54 127 52 0 -2 -26 -18 -57 -36 -145 -82 -438 -278
-429 -287 7 -6 270 96 466 180 102 43 192 82 200 85 18 6 -2 -7 -180 -117
-147 -90 -413 -271 -407 -276 3 -4 278 110 427 176 137 61 160 71 160 66 0 -2
-21 -16 -47 -31 -78 -45 -485 -317 -480 -321 7 -7 446 180 569 242 95 48 59
22 -102 -74 -195 -116 -423 -263 -417 -269 7 -6 405 129 521 176 55 22 101 40
102 38 1 -1 -63 -39 -144 -85 -266 -150 -417 -242 -399 -242 58 0 315 83 480
155 55 25 102 43 104 42 1 -2 -53 -38 -120 -79 -127 -79 -337 -225 -372 -259
-20 -19 -19 -19 35 -3 95 28 270 94 394 150 66 29 121 52 123 50 2 -2 -24 -20
-57 -40 -132 -82 -427 -302 -417 -312 8 -8 209 76 387 162 96 47 171 81 165
76 -5 -5 -80 -60 -165 -124 -85 -64 -191 -150 -235 -192 l-80 -75 65 25 c74
30 329 153 440 213 41 22 62 31 46 18 -16 -12 -79 -60 -139 -107 -113 -87
-300 -259 -318 -291 -11 -22 212 101 541 300 38 23 14 0 -85 -79 -90 -72 -395
-338 -395 -345 0 -10 399 192 445 225 22 15 149 80 129 65 -11 -8 -90 -66
-175 -128 -210 -152 -338 -251 -333 -256 2 -3 135 61 294 141 160 80 290 144
290 143 0 -1 -19 -15 -42 -30 -64 -42 -466 -344 -473 -355 -6 -10 21 1 176 73
73 34 351 179 434 227 58 34 49 27 -157 -128 -195 -146 -390 -303 -384 -309
10 -11 366 165 496 245 49 31 2 -7 -164 -133 -236 -178 -275 -209 -271 -213 8
-8 293 133 450 223 63 35 46 18 -78 -79 -108 -85 -307 -255 -307 -262 0 -3 10
0 21 7 21 11 417 248 474 284 45 28 17 2 -120 -113 -66 -55 -165 -144 -220
-197 -95 -92 -97 -95 -50 -69 28 15 115 69 195 119 l145 90 -164 -162 c-90
-90 -162 -166 -158 -169 3 -3 43 23 89 58 130 101 331 241 608 423 666 439
848 562 1015 687 254 191 601 485 675 573 14 16 51 56 83 89 31 33 57 61 57
62 0 2 35 50 78 107 156 207 253 406 299 611 8 39 18 143 22 230 l6 159 50 12
c34 9 58 23 78 47 16 18 39 45 51 59 14 15 42 31 72 38 59 15 106 45 129 83
22 39 55 70 155 151 47 38 84 74 83 81 -1 6 294 181 655 389 361 208 2126
1225 3922 2261 2770 1597 3266 1887 3275 1910 8 22 4 37 -19 79 -33 61 -60 87
-90 87 -11 -1 -77 -34 -146 -74z"/>
</g>
</svg>
